<svg xmlns="http://www.w3.org/2000/svg" viewBox="0 0 256 256">
  <defs>
    <linearGradient id="bg" x1="0" y1="0" x2="1" y2="1">
      <stop offset="0" stop-color="#4a93ea"/>
      <stop offset="1" stop-color="#2b6fca"/>
    </linearGradient>
  </defs>
  <rect x="0" y="0" width="256" height="256" rx="56" fill="url(#bg)"/>
  <rect x="52" y="42" width="18" height="34" rx="9" fill="#eef4fd"/>
  <rect x="186" y="42" width="18" height="34" rx="9" fill="#eef4fd"/>
  <rect x="44" y="60" width="168" height="154" rx="18" fill="#ffffff"/>
  <rect x="44" y="60" width="168" height="46" rx="18" fill="#2b6fca"/>
  <rect x="44" y="88" width="168" height="18" fill="#2b6fca"/>
  <g fill="#b9d4f5">
    <rect x="66" y="128" width="24" height="24" rx="6"/>
    <rect x="104" y="128" width="24" height="24" rx="6"/>
    <rect x="142" y="128" width="24" height="24" rx="6"/>
    <rect x="66" y="166" width="24" height="24" rx="6"/>
    <rect x="104" y="166" width="24" height="24" rx="6"/>
  </g>
  <rect x="142" y="166" width="24" height="24" rx="6" fill="#2b6fca"/>
</svg>
